<mxfile host="app.diagrams.net" modified="2022-05-19T14:53:27.850Z" agent="5.0 (Windows NT 10.0; Win64; x64) AppleWebKit/537.36 (KHTML, like Gecko) Chrome/101.0.4951.64 Safari/537.36 Edg/101.0.1210.47" etag="OvqpxkNaxHZ9tFYWVoNB" version="18.0.4" type="github">
  <diagram id="1wbYUL53LnVkL0GDkITx" name="Page-1">
    <mxGraphModel dx="1370" dy="1030" grid="0" gridSize="10" guides="1" tooltips="1" connect="1" arrows="0" fold="1" page="1" pageScale="1" pageWidth="827" pageHeight="1169" math="0" shadow="0">
      <root>
        <mxCell id="0" />
        <mxCell id="1" parent="0" />
        <mxCell id="3poNSQeOzDR2skETEawQ-4" value="&lt;font style=&quot;font-size: 25px;&quot;&gt;开始&lt;/font&gt;" style="strokeWidth=2;html=1;shape=mxgraph.flowchart.terminator;whiteSpace=wrap;fontFamily=Helvetica;" parent="1" vertex="1">
          <mxGeometry x="347.5" y="140" width="180" height="60" as="geometry" />
        </mxCell>
        <mxCell id="3poNSQeOzDR2skETEawQ-6" value="" style="strokeWidth=2;html=1;shape=mxgraph.flowchart.annotation_2;align=left;labelPosition=right;pointerEvents=1;rotation=90;" parent="1" vertex="1">
          <mxGeometry x="390" y="152.5" width="95" height="190" as="geometry" />
        </mxCell>
        <mxCell id="3poNSQeOzDR2skETEawQ-8" value="输入图像" style="rounded=0;whiteSpace=wrap;html=1;fontSize=20;" parent="1" vertex="1">
          <mxGeometry x="260" y="290" width="150" height="60" as="geometry" />
        </mxCell>
        <mxCell id="3poNSQeOzDR2skETEawQ-9" value="模板模型选取" style="rounded=0;whiteSpace=wrap;html=1;fontSize=20;" parent="1" vertex="1">
          <mxGeometry x="485" y="290" width="145" height="60" as="geometry" />
        </mxCell>
        <mxCell id="3poNSQeOzDR2skETEawQ-11" value="" style="endArrow=classic;html=1;rounded=0;fontFamily=Helvetica;fontSize=20;exitX=0.5;exitY=1;exitDx=0;exitDy=0;" parent="1" source="3poNSQeOzDR2skETEawQ-8" edge="1">
          <mxGeometry width="50" height="50" relative="1" as="geometry">
            <mxPoint x="330" y="390" as="sourcePoint" />
            <mxPoint x="335" y="420" as="targetPoint" />
          </mxGeometry>
        </mxCell>
        <mxCell id="3poNSQeOzDR2skETEawQ-12" value="" style="endArrow=classic;html=1;rounded=0;fontFamily=Helvetica;fontSize=20;" parent="1" edge="1">
          <mxGeometry width="50" height="50" relative="1" as="geometry">
            <mxPoint x="560" y="350" as="sourcePoint" />
            <mxPoint x="560" y="420" as="targetPoint" />
          </mxGeometry>
        </mxCell>
        <mxCell id="3poNSQeOzDR2skETEawQ-13" value="图像预处理" style="rounded=0;whiteSpace=wrap;html=1;fontFamily=Helvetica;fontSize=20;" parent="1" vertex="1">
          <mxGeometry x="260" y="420" width="150" height="60" as="geometry" />
        </mxCell>
        <mxCell id="3poNSQeOzDR2skETEawQ-14" value="模板模型预处理" style="rounded=0;whiteSpace=wrap;html=1;fontFamily=Helvetica;fontSize=20;" parent="1" vertex="1">
          <mxGeometry x="480" y="420" width="150" height="60" as="geometry" />
        </mxCell>
        <mxCell id="3poNSQeOzDR2skETEawQ-15" value="" style="endArrow=classic;html=1;rounded=0;fontFamily=Helvetica;fontSize=20;exitX=0.5;exitY=1;exitDx=0;exitDy=0;" parent="1" source="3poNSQeOzDR2skETEawQ-13" edge="1">
          <mxGeometry width="50" height="50" relative="1" as="geometry">
            <mxPoint x="390" y="430" as="sourcePoint" />
            <mxPoint x="335" y="540" as="targetPoint" />
          </mxGeometry>
        </mxCell>
        <mxCell id="3poNSQeOzDR2skETEawQ-16" value="" style="endArrow=classic;html=1;rounded=0;fontFamily=Helvetica;fontSize=20;" parent="1" edge="1">
          <mxGeometry width="50" height="50" relative="1" as="geometry">
            <mxPoint x="560" y="480" as="sourcePoint" />
            <mxPoint x="560" y="540" as="targetPoint" />
          </mxGeometry>
        </mxCell>
        <mxCell id="3poNSQeOzDR2skETEawQ-17" value="模型特征提取" style="rounded=0;whiteSpace=wrap;html=1;fontFamily=Helvetica;fontSize=20;" parent="1" vertex="1">
          <mxGeometry x="485" y="540" width="145" height="60" as="geometry" />
        </mxCell>
        <mxCell id="3poNSQeOzDR2skETEawQ-18" value="图像特征提取" style="rounded=0;whiteSpace=wrap;html=1;fontFamily=Helvetica;fontSize=20;" parent="1" vertex="1">
          <mxGeometry x="260" y="540" width="150" height="60" as="geometry" />
        </mxCell>
        <mxCell id="3poNSQeOzDR2skETEawQ-21" value="" style="strokeWidth=2;html=1;shape=mxgraph.flowchart.annotation_2;align=left;labelPosition=right;pointerEvents=1;fontFamily=Helvetica;fontSize=20;rotation=-90;" parent="1" vertex="1">
          <mxGeometry x="391.5" y="551.5" width="112" height="220" as="geometry" />
        </mxCell>
        <mxCell id="3poNSQeOzDR2skETEawQ-23" value="生成变形矩阵" style="rounded=0;whiteSpace=wrap;html=1;fontFamily=Helvetica;fontSize=20;" parent="1" vertex="1">
          <mxGeometry x="352.5" y="720" width="190" height="60" as="geometry" />
        </mxCell>
        <mxCell id="3poNSQeOzDR2skETEawQ-24" value="" style="endArrow=classic;html=1;rounded=0;fontFamily=Helvetica;fontSize=20;entryX=0.526;entryY=0.167;entryDx=0;entryDy=0;entryPerimeter=0;" parent="1" edge="1">
          <mxGeometry width="50" height="50" relative="1" as="geometry">
            <mxPoint x="450" y="780" as="sourcePoint" />
            <mxPoint x="449.94000000000005" y="840.02" as="targetPoint" />
          </mxGeometry>
        </mxCell>
        <mxCell id="3poNSQeOzDR2skETEawQ-30" value="变形方法" style="rounded=0;whiteSpace=wrap;html=1;fontFamily=Helvetica;fontSize=20;" parent="1" vertex="1">
          <mxGeometry x="360" y="840" width="190" height="60" as="geometry" />
        </mxCell>
        <mxCell id="3poNSQeOzDR2skETEawQ-32" value="生成物体模型" style="rounded=0;whiteSpace=wrap;html=1;fontFamily=Helvetica;fontSize=20;" parent="1" vertex="1">
          <mxGeometry x="360" y="950" width="190" height="60" as="geometry" />
        </mxCell>
        <mxCell id="3poNSQeOzDR2skETEawQ-33" value="结束" style="strokeWidth=2;html=1;shape=mxgraph.flowchart.terminator;whiteSpace=wrap;fontFamily=Helvetica;fontSize=20;" parent="1" vertex="1">
          <mxGeometry x="352.5" y="1060" width="207.5" height="60" as="geometry" />
        </mxCell>
        <mxCell id="3poNSQeOzDR2skETEawQ-34" value="" style="endArrow=classic;html=1;rounded=0;fontFamily=Helvetica;fontSize=20;exitX=0.48;exitY=-0.108;exitDx=0;exitDy=0;exitPerimeter=0;" parent="1" source="3poNSQeOzDR2skETEawQ-33" edge="1">
          <mxGeometry width="50" height="50" relative="1" as="geometry">
            <mxPoint x="390" y="1010" as="sourcePoint" />
            <mxPoint x="452" y="1054" as="targetPoint" />
          </mxGeometry>
        </mxCell>
        <mxCell id="3poNSQeOzDR2skETEawQ-35" value="" style="endArrow=classic;html=1;rounded=0;fontFamily=Helvetica;fontSize=20;entryX=0.5;entryY=0;entryDx=0;entryDy=0;exitX=0.5;exitY=1;exitDx=0;exitDy=0;" parent="1" source="3poNSQeOzDR2skETEawQ-30" target="3poNSQeOzDR2skETEawQ-32" edge="1">
          <mxGeometry width="50" height="50" relative="1" as="geometry">
            <mxPoint x="390" y="1010" as="sourcePoint" />
            <mxPoint x="440" y="960" as="targetPoint" />
          </mxGeometry>
        </mxCell>
        <mxCell id="3poNSQeOzDR2skETEawQ-36" value="" style="endArrow=classic;html=1;rounded=0;fontFamily=Helvetica;fontSize=20;" parent="1" edge="1">
          <mxGeometry width="50" height="50" relative="1" as="geometry">
            <mxPoint x="450" y="1010" as="sourcePoint" />
            <mxPoint x="450" y="1060" as="targetPoint" />
          </mxGeometry>
        </mxCell>
        <mxCell id="3poNSQeOzDR2skETEawQ-37" value="" style="shape=partialRectangle;whiteSpace=wrap;html=1;bottom=0;right=0;fillColor=none;fontFamily=Helvetica;fontSize=20;rotation=90;" parent="1" vertex="1">
          <mxGeometry x="481.5" y="600" width="424.25" height="127.25" as="geometry" />
        </mxCell>
        <mxCell id="3poNSQeOzDR2skETEawQ-38" value="" style="endArrow=classic;html=1;rounded=0;fontFamily=Helvetica;fontSize=20;exitX=1;exitY=0;exitDx=0;exitDy=0;" parent="1" source="3poNSQeOzDR2skETEawQ-37" edge="1">
          <mxGeometry width="50" height="50" relative="1" as="geometry">
            <mxPoint x="620" y="890" as="sourcePoint" />
            <mxPoint x="550" y="876" as="targetPoint" />
          </mxGeometry>
        </mxCell>
      </root>
    </mxGraphModel>
  </diagram>
</mxfile>
